<svg width="1500" height="1500" viewBox="0 0 1500 1500" fill="none" xmlns="http://www.w3.org/2000/svg">
<g clip-path="url(#clip0_15_1248)">
<path d="M1389 925.069C1389.03 930.433 1387 935.59 1383.38 939.403C1379.75 943.216 1374.81 945.374 1369.66 945.402H518.527C513.369 945.374 508.434 943.216 504.806 939.403C501.178 935.59 499.155 930.434 499.182 925.069V320.333C499.155 314.969 501.178 309.812 504.805 305.999C508.433 302.186 513.369 300.028 518.526 300H1369.65C1374.81 300.028 1379.75 302.186 1383.38 305.999C1387 309.812 1389.03 314.968 1389 320.333V925.069Z" fill="#E6E6E6"/>
<path d="M1378.96 915.166C1378.96 920.38 1376.97 925.381 1373.42 929.068C1369.88 932.755 1365.07 934.827 1360.06 934.827H528.706C523.693 934.827 518.886 932.755 515.341 929.068C511.796 925.381 509.805 920.38 509.805 915.166V330.513C509.805 325.299 511.796 320.298 515.341 316.611C518.886 312.924 523.693 310.853 528.706 310.853H1360.1C1365.1 310.863 1369.9 312.939 1373.44 316.625C1376.97 320.311 1378.96 325.306 1378.96 330.513V915.166Z" fill="white"/>
<path d="M554.237 336.236H1335.41C1338.39 336.236 1341.24 337.466 1343.35 339.654C1345.45 341.843 1346.63 344.811 1346.63 347.906V895.506C1346.63 898.601 1345.45 901.569 1343.35 903.757C1341.24 905.946 1338.39 907.175 1335.41 907.175H554.237C552.764 907.175 551.305 906.874 549.944 906.287C548.583 905.701 547.346 904.841 546.304 903.757C545.263 902.674 544.436 901.387 543.872 899.971C543.309 898.556 543.018 897.038 543.018 895.506V347.906C543.018 346.374 543.309 344.856 543.872 343.44C544.436 342.024 545.263 340.738 546.304 339.654C547.346 338.571 548.583 337.711 549.944 337.125C551.305 336.538 552.764 336.236 554.237 336.236Z" fill="#E6E6E6"/>
<path d="M564.125 349.369H1324.68C1327.65 349.369 1330.51 350.599 1332.61 352.787C1334.71 354.976 1335.9 357.944 1335.9 361.039V879.418C1335.9 882.513 1334.71 885.481 1332.61 887.669C1330.51 889.858 1327.65 891.087 1324.68 891.087H564.125C561.15 891.087 558.296 889.858 556.192 887.669C554.088 885.481 552.906 882.513 552.906 879.418V361.039C552.906 357.944 554.088 354.976 556.192 352.787C558.296 350.599 561.15 349.369 564.125 349.369Z" fill="white"/>
<path d="M1192.51 997.593C1192.53 1002.96 1190.51 1008.11 1186.88 1011.93C1183.26 1015.74 1178.32 1017.9 1173.16 1017.93H322.034C319.481 1017.91 316.955 1017.38 314.6 1016.35C312.246 1015.32 310.11 1013.82 308.313 1011.93C306.517 1010.04 305.096 1007.8 304.131 1005.34C303.166 1002.88 302.676 1000.25 302.689 997.594V392.858C302.662 387.493 304.685 382.337 308.313 378.524C311.941 374.71 316.876 372.552 322.034 372.524H1173.16C1178.32 372.552 1183.26 374.71 1186.88 378.523C1190.51 382.336 1192.53 387.492 1192.51 392.857V997.593Z" fill="#E6E6E6"/>
<path d="M1182.47 987.691C1182.47 992.905 1180.48 997.906 1176.93 1001.59C1173.39 1005.28 1168.58 1007.35 1163.57 1007.35H332.214C327.201 1007.35 322.393 1005.28 318.849 1001.59C315.304 997.906 313.313 992.905 313.313 987.691V403.038C313.313 397.823 315.304 392.823 318.849 389.135C322.393 385.448 327.201 383.377 332.214 383.377H1163.6C1168.61 383.387 1173.41 385.463 1176.94 389.149C1180.48 392.835 1182.47 397.83 1182.47 403.038V987.691Z" fill="white"/>
<path d="M357.745 408.761H1138.92C1141.9 408.761 1144.75 409.99 1146.86 412.179C1148.96 414.367 1150.14 417.336 1150.14 420.431V968.03C1150.14 971.125 1148.96 974.093 1146.86 976.282C1144.75 978.47 1141.9 979.7 1138.92 979.7H357.745C354.77 979.7 351.916 978.47 349.812 976.282C347.708 974.093 346.526 971.125 346.526 968.03V420.431C346.526 417.336 347.708 414.367 349.812 412.179C351.916 409.99 354.77 408.761 357.745 408.761Z" fill="#E6E6E6"/>
<path d="M367.633 421.894H1128.18C1131.16 421.894 1134.01 423.123 1136.12 425.312C1138.22 427.5 1139.4 430.468 1139.4 433.563V951.942C1139.4 955.037 1138.22 958.005 1136.12 960.194C1134.01 962.382 1131.16 963.612 1128.18 963.612H367.633C364.658 963.612 361.804 962.382 359.7 960.194C357.596 958.005 356.414 955.037 356.414 951.942V433.563C356.414 430.468 357.596 427.5 359.7 425.312C361.804 423.123 364.658 421.894 367.633 421.894Z" fill="white"/>
<path d="M999.818 1080.67C999.845 1086.03 997.822 1091.19 994.195 1095C990.567 1098.81 985.631 1100.97 980.474 1101H129.345C124.188 1100.97 119.252 1098.81 115.624 1095C111.996 1091.19 109.973 1086.03 110 1080.67V475.931C109.973 470.566 111.996 465.41 115.624 461.597C119.252 457.784 124.187 455.626 129.345 455.598H980.473C983.027 455.611 985.553 456.148 987.907 457.178C990.262 458.207 992.398 459.708 994.194 461.597C995.991 463.485 997.412 465.722 998.377 468.182C999.342 470.641 999.832 473.274 999.818 475.93V1080.67Z" fill="#E6E6E6"/>
<path d="M989.778 1070.76C989.778 1075.98 987.787 1080.98 984.242 1084.67C980.698 1088.35 975.89 1090.42 970.877 1090.42H139.525C134.512 1090.42 129.704 1088.35 126.16 1084.67C122.615 1080.98 120.623 1075.98 120.623 1070.76V486.111C120.623 480.897 122.615 475.896 126.16 472.209C129.704 468.522 134.512 466.45 139.525 466.45H970.915C975.921 466.461 980.719 468.537 984.256 472.223C987.792 475.909 989.778 480.903 989.778 486.111V1070.76Z" fill="white"/>
<path d="M165.056 491.834H946.233C949.208 491.834 952.062 493.063 954.166 495.252C956.27 497.441 957.452 500.409 957.452 503.504V1051.1C957.452 1054.2 956.27 1057.17 954.166 1059.36C952.062 1061.54 949.208 1062.77 946.233 1062.77H165.056C162.081 1062.77 159.227 1061.54 157.123 1059.36C155.019 1057.17 153.837 1054.2 153.837 1051.1V503.504C153.837 500.409 155.019 497.441 157.123 495.252C159.227 493.063 162.081 491.834 165.056 491.834Z" fill="#E6E6E6"/>
<path d="M174.944 504.968H935.496C938.471 504.968 941.325 506.197 943.429 508.386C945.533 510.574 946.715 513.543 946.715 516.638V1035.02C946.715 1038.11 945.533 1041.08 943.429 1043.27C941.325 1045.46 938.471 1046.69 935.496 1046.69H174.944C171.969 1046.69 169.115 1045.46 167.011 1043.27C164.907 1041.08 163.725 1038.11 163.725 1035.02V516.638C163.725 513.543 164.907 510.574 167.011 508.386C169.115 506.197 171.969 504.968 174.944 504.968Z" fill="white"/>
<path d="M737.003 617.26V975.927C737.001 978.025 736.199 980.036 734.773 981.519C733.347 983.003 731.413 983.837 729.397 983.839H368.104C366.088 983.837 364.154 983.003 362.728 981.519C361.302 980.036 360.5 978.025 360.498 975.927V575.064C360.5 572.966 361.302 570.955 362.728 569.471C364.154 567.988 366.088 567.154 368.104 567.152H683.76L737.003 617.26Z" fill="#F9F126"/>
<path d="M424.436 654.443C423.187 654.465 421.997 654.996 421.122 655.922C420.247 656.848 419.756 658.095 419.756 659.394C419.756 660.692 420.247 661.939 421.122 662.865C421.997 663.791 423.187 664.323 424.436 664.345H549.943C550.57 664.358 551.193 664.243 551.776 664.005C552.36 663.767 552.893 663.412 553.344 662.96C553.796 662.507 554.157 661.967 554.407 661.369C554.657 660.771 554.791 660.127 554.801 659.475C554.811 658.824 554.698 658.176 554.467 657.57C554.236 656.964 553.892 656.411 553.455 655.943C553.018 655.476 552.497 655.103 551.921 654.845C551.345 654.588 550.726 654.451 550.099 654.443C550.047 654.442 549.995 654.442 549.943 654.443H424.436Z" fill="white"/>
<path d="M424.436 700.883C423.187 700.905 421.997 701.437 421.122 702.363C420.246 703.289 419.756 704.536 419.756 705.834C419.756 707.133 420.246 708.38 421.122 709.306C421.997 710.232 423.187 710.763 424.436 710.785H672.909C674.168 710.801 675.382 710.298 676.285 709.385C677.189 708.473 677.707 707.225 677.728 705.915C677.749 704.606 677.27 703.341 676.396 702.398C675.522 701.455 674.324 700.91 673.065 700.883C673.013 700.883 672.961 700.883 672.909 700.883H424.436Z" fill="white"/>
<path d="M424.436 747.325C423.187 747.347 421.997 747.878 421.122 748.804C420.246 749.73 419.756 750.977 419.756 752.276C419.756 753.574 420.246 754.821 421.122 755.747C421.997 756.673 423.187 757.204 424.436 757.226H672.909C673.536 757.24 674.158 757.124 674.742 756.886C675.326 756.649 675.858 756.293 676.309 755.841C676.761 755.389 677.122 754.848 677.371 754.25C677.621 753.652 677.755 753.009 677.765 752.357C677.776 751.705 677.662 751.058 677.431 750.452C677.2 749.846 676.857 749.293 676.42 748.826C675.983 748.358 675.462 747.985 674.887 747.727C674.311 747.47 673.692 747.333 673.065 747.325C673.013 747.324 672.961 747.324 672.909 747.325H424.436Z" fill="white"/>
<path d="M424.436 793.765C423.187 793.787 421.997 794.319 421.122 795.245C420.247 796.171 419.756 797.417 419.756 798.716C419.756 800.015 420.247 801.261 421.122 802.187C421.997 803.113 423.187 803.645 424.436 803.667H672.909C673.536 803.68 674.159 803.565 674.742 803.327C675.326 803.09 675.859 802.734 676.31 802.282C676.762 801.829 677.123 801.289 677.373 800.691C677.623 800.093 677.757 799.45 677.767 798.798C677.777 798.146 677.664 797.498 677.433 796.892C677.202 796.286 676.858 795.733 676.421 795.266C675.984 794.798 675.463 794.425 674.887 794.167C674.311 793.91 673.692 793.773 673.065 793.765C673.013 793.764 672.961 793.764 672.909 793.765H424.436Z" fill="white"/>
<path d="M424.436 840.206C423.187 840.228 421.997 840.759 421.122 841.685C420.247 842.611 419.756 843.858 419.756 845.156C419.756 846.455 420.247 847.702 421.122 848.628C421.997 849.554 423.187 850.085 424.436 850.107H672.909C673.536 850.121 674.159 850.005 674.742 849.768C675.326 849.53 675.859 849.175 676.31 848.722C676.762 848.27 677.123 847.729 677.373 847.131C677.623 846.533 677.757 845.89 677.767 845.238C677.777 844.586 677.664 843.939 677.433 843.333C677.202 842.726 676.858 842.174 676.421 841.706C675.984 841.238 675.463 840.865 674.887 840.608C674.311 840.35 673.692 840.214 673.065 840.206C673.013 840.205 672.961 840.205 672.909 840.206H424.436Z" fill="white"/>
<path d="M424.436 886.647C423.187 886.669 421.997 887.2 421.122 888.127C420.247 889.053 419.756 890.299 419.756 891.598C419.756 892.897 420.247 894.143 421.122 895.069C421.997 895.995 423.187 896.527 424.436 896.549H672.909C673.536 896.562 674.159 896.447 674.742 896.209C675.326 895.971 675.859 895.616 676.31 895.164C676.762 894.711 677.123 894.171 677.373 893.573C677.623 892.975 677.757 892.332 677.767 891.68C677.777 891.028 677.664 890.38 677.433 889.774C677.202 889.168 676.858 888.615 676.421 888.147C675.984 887.68 675.463 887.307 674.887 887.049C674.311 886.792 673.692 886.655 673.065 886.647C673.013 886.646 672.961 886.646 672.909 886.647H424.436Z" fill="white"/>
<path d="M737.003 617.26H688.831C687.486 617.26 686.196 616.704 685.245 615.715C684.294 614.726 683.76 613.385 683.76 611.986V567.152L737.003 617.26Z" fill="#F9F126"/>
<path opacity="0.2" d="M737.003 617.26H688.831C687.486 617.26 686.196 616.704 685.245 615.715C684.294 614.726 683.76 613.385 683.76 611.986V567.152L737.003 617.26Z" fill="black"/>
<path d="M1000 695.825H842V510.899H1000V695.825Z" fill="#F9E426"/>
<path d="M918.656 562.845C911.011 562.844 903.538 565.2 897.181 569.613C890.824 574.027 885.869 580.3 882.943 587.64C880.017 594.98 879.251 603.056 880.742 610.849C882.233 618.641 885.915 625.798 891.32 631.417C896.726 637.035 903.613 640.861 911.111 642.411C918.609 643.961 926.381 643.166 933.445 640.126C940.508 637.086 946.545 631.938 950.793 625.333C955.041 618.727 957.308 610.961 957.309 603.016V603.014C957.309 597.739 956.309 592.515 954.366 587.642C952.424 582.768 949.576 578.34 945.987 574.61C942.398 570.88 938.136 567.921 933.447 565.902C928.757 563.884 923.73 562.845 918.654 562.845H918.656ZM918.656 574.894C920.95 574.894 923.191 575.601 925.098 576.925C927.005 578.249 928.491 580.131 929.369 582.333C930.246 584.535 930.476 586.957 930.029 589.295C929.581 591.632 928.477 593.779 926.855 595.465C925.234 597.15 923.168 598.297 920.918 598.762C918.669 599.227 916.338 598.989 914.219 598.077C912.1 597.165 910.289 595.62 909.015 593.639C907.741 591.657 907.061 589.327 907.061 586.944C907.061 583.748 908.283 580.684 910.457 578.424C912.632 576.164 915.581 574.894 918.656 574.894ZM918.656 632.907C914.075 632.885 909.569 631.702 905.527 629.461C901.485 627.22 898.031 623.988 895.464 620.045C895.65 612.011 910.925 607.589 918.656 607.589C926.387 607.589 941.663 612.011 941.849 620.045C939.279 623.985 935.824 627.215 931.783 629.456C927.742 631.697 923.236 632.881 918.656 632.907Z" fill="black"/>
</g>
<g clip-path="url(#clip1_15_1248)">
<path d="M1389 925.069C1389.03 930.433 1387 935.59 1383.38 939.403C1379.75 943.216 1374.81 945.374 1369.66 945.402H518.527C513.369 945.374 508.434 943.216 504.806 939.403C501.178 935.59 499.155 930.434 499.182 925.069V320.333C499.155 314.969 501.178 309.812 504.805 305.999C508.433 302.186 513.369 300.028 518.526 300H1369.65C1374.81 300.028 1379.75 302.186 1383.38 305.999C1387 309.812 1389.03 314.968 1389 320.333V925.069Z" fill="#E6E6E6"/>
<path d="M1378.96 915.166C1378.96 920.38 1376.97 925.381 1373.42 929.068C1369.88 932.755 1365.07 934.827 1360.06 934.827H528.706C523.693 934.827 518.886 932.755 515.341 929.068C511.796 925.381 509.805 920.38 509.805 915.166V330.513C509.805 325.299 511.796 320.298 515.341 316.611C518.886 312.924 523.693 310.853 528.706 310.853H1360.1C1365.1 310.863 1369.9 312.939 1373.44 316.625C1376.97 320.311 1378.96 325.306 1378.96 330.513V915.166Z" fill="white"/>
<path d="M554.237 336.236H1335.41C1338.39 336.236 1341.24 337.466 1343.35 339.654C1345.45 341.843 1346.63 344.811 1346.63 347.906V895.506C1346.63 898.601 1345.45 901.569 1343.35 903.757C1341.24 905.946 1338.39 907.175 1335.41 907.175H554.237C552.764 907.175 551.305 906.874 549.944 906.287C548.583 905.701 547.346 904.841 546.304 903.757C545.263 902.674 544.436 901.387 543.872 899.971C543.309 898.556 543.018 897.038 543.018 895.506V347.906C543.018 346.374 543.309 344.856 543.872 343.44C544.436 342.024 545.263 340.738 546.304 339.654C547.346 338.571 548.583 337.711 549.944 337.125C551.305 336.538 552.764 336.236 554.237 336.236Z" fill="#E6E6E6"/>
<path d="M564.125 349.369H1324.68C1327.65 349.369 1330.51 350.599 1332.61 352.787C1334.71 354.976 1335.9 357.944 1335.9 361.039V879.418C1335.9 882.513 1334.71 885.481 1332.61 887.669C1330.51 889.858 1327.65 891.087 1324.68 891.087H564.125C561.15 891.087 558.296 889.858 556.192 887.669C554.088 885.481 552.906 882.513 552.906 879.418V361.039C552.906 357.944 554.088 354.976 556.192 352.787C558.296 350.599 561.15 349.369 564.125 349.369Z" fill="white"/>
<path d="M1192.51 997.593C1192.53 1002.96 1190.51 1008.11 1186.88 1011.93C1183.26 1015.74 1178.32 1017.9 1173.16 1017.93H322.034C319.481 1017.91 316.955 1017.38 314.6 1016.35C312.246 1015.32 310.11 1013.82 308.313 1011.93C306.517 1010.04 305.096 1007.8 304.131 1005.34C303.166 1002.88 302.676 1000.25 302.689 997.594V392.858C302.662 387.493 304.685 382.337 308.313 378.524C311.941 374.71 316.876 372.552 322.034 372.524H1173.16C1178.32 372.552 1183.26 374.71 1186.88 378.523C1190.51 382.336 1192.53 387.492 1192.51 392.857V997.593Z" fill="#E6E6E6"/>
<path d="M1182.47 987.691C1182.47 992.905 1180.48 997.906 1176.93 1001.59C1173.39 1005.28 1168.58 1007.35 1163.57 1007.35H332.214C327.201 1007.35 322.393 1005.28 318.849 1001.59C315.304 997.906 313.313 992.905 313.313 987.691V403.038C313.313 397.823 315.304 392.823 318.849 389.135C322.393 385.448 327.201 383.377 332.214 383.377H1163.6C1168.61 383.387 1173.41 385.463 1176.94 389.149C1180.48 392.835 1182.47 397.83 1182.47 403.038V987.691Z" fill="white"/>
<path d="M357.745 408.761H1138.92C1141.9 408.761 1144.75 409.99 1146.86 412.179C1148.96 414.367 1150.14 417.336 1150.14 420.431V968.03C1150.14 971.125 1148.96 974.093 1146.86 976.282C1144.75 978.47 1141.9 979.7 1138.92 979.7H357.745C354.77 979.7 351.916 978.47 349.812 976.282C347.708 974.093 346.526 971.125 346.526 968.03V420.431C346.526 417.336 347.708 414.367 349.812 412.179C351.916 409.99 354.77 408.761 357.745 408.761Z" fill="#E6E6E6"/>
<path d="M367.633 421.894H1128.18C1131.16 421.894 1134.01 423.123 1136.12 425.312C1138.22 427.5 1139.4 430.468 1139.4 433.563V951.942C1139.4 955.037 1138.22 958.005 1136.12 960.194C1134.01 962.382 1131.16 963.612 1128.18 963.612H367.633C364.658 963.612 361.804 962.382 359.7 960.194C357.596 958.005 356.414 955.037 356.414 951.942V433.563C356.414 430.468 357.596 427.5 359.7 425.312C361.804 423.123 364.658 421.894 367.633 421.894Z" fill="white"/>
<path d="M999.818 1080.67C999.845 1086.03 997.822 1091.19 994.195 1095C990.567 1098.81 985.631 1100.97 980.474 1101H129.345C124.188 1100.97 119.252 1098.81 115.624 1095C111.996 1091.19 109.973 1086.03 110 1080.67V475.931C109.973 470.566 111.996 465.41 115.624 461.597C119.252 457.784 124.187 455.626 129.345 455.598H980.473C983.027 455.611 985.553 456.148 987.907 457.178C990.262 458.207 992.398 459.708 994.194 461.597C995.991 463.485 997.412 465.722 998.377 468.182C999.342 470.641 999.832 473.274 999.818 475.93V1080.67Z" fill="#E6E6E6"/>
<path d="M989.778 1070.76C989.778 1075.98 987.787 1080.98 984.242 1084.67C980.698 1088.35 975.89 1090.42 970.877 1090.42H139.525C134.512 1090.42 129.704 1088.35 126.16 1084.67C122.615 1080.98 120.623 1075.98 120.623 1070.76V486.111C120.623 480.897 122.615 475.896 126.16 472.209C129.704 468.522 134.512 466.45 139.525 466.45H970.915C975.921 466.461 980.719 468.537 984.256 472.223C987.792 475.909 989.778 480.903 989.778 486.111V1070.76Z" fill="white"/>
<path d="M165.056 491.834H946.233C949.208 491.834 952.062 493.063 954.166 495.252C956.27 497.441 957.452 500.409 957.452 503.504V1051.1C957.452 1054.2 956.27 1057.17 954.166 1059.36C952.062 1061.54 949.208 1062.77 946.233 1062.77H165.056C162.081 1062.77 159.227 1061.54 157.123 1059.36C155.019 1057.17 153.837 1054.2 153.837 1051.1V503.504C153.837 500.409 155.019 497.441 157.123 495.252C159.227 493.063 162.081 491.834 165.056 491.834Z" fill="#E6E6E6"/>
<path d="M174.944 504.968H935.496C938.471 504.968 941.325 506.197 943.429 508.386C945.533 510.574 946.715 513.543 946.715 516.638V1035.02C946.715 1038.11 945.533 1041.08 943.429 1043.27C941.325 1045.46 938.471 1046.69 935.496 1046.69H174.944C171.969 1046.69 169.115 1045.46 167.011 1043.27C164.907 1041.08 163.725 1038.11 163.725 1035.02V516.638C163.725 513.543 164.907 510.574 167.011 508.386C169.115 506.197 171.969 504.968 174.944 504.968Z" fill="white"/>
<path d="M737.003 617.26V975.927C737.001 978.025 736.199 980.036 734.773 981.519C733.347 983.003 731.413 983.837 729.397 983.839H368.104C366.088 983.837 364.154 983.003 362.728 981.519C361.302 980.036 360.5 978.025 360.498 975.927V575.064C360.5 572.966 361.302 570.955 362.728 569.471C364.154 567.988 366.088 567.154 368.104 567.152H683.76L737.003 617.26Z" fill="#F9F126"/>
<path d="M424.436 654.443C423.187 654.465 421.997 654.996 421.122 655.922C420.247 656.848 419.756 658.095 419.756 659.394C419.756 660.692 420.247 661.939 421.122 662.865C421.997 663.791 423.187 664.323 424.436 664.345H549.943C550.57 664.358 551.193 664.243 551.776 664.005C552.36 663.767 552.893 663.412 553.344 662.96C553.796 662.507 554.157 661.967 554.407 661.369C554.657 660.771 554.791 660.127 554.801 659.475C554.811 658.824 554.698 658.176 554.467 657.57C554.236 656.964 553.892 656.411 553.455 655.943C553.018 655.476 552.497 655.103 551.921 654.845C551.345 654.588 550.726 654.451 550.099 654.443C550.047 654.442 549.995 654.442 549.943 654.443H424.436Z" fill="white"/>
<path d="M424.436 700.883C423.187 700.905 421.997 701.437 421.122 702.363C420.246 703.289 419.756 704.536 419.756 705.834C419.756 707.133 420.246 708.38 421.122 709.306C421.997 710.232 423.187 710.763 424.436 710.785H672.909C674.168 710.801 675.382 710.298 676.285 709.385C677.189 708.473 677.707 707.225 677.728 705.915C677.749 704.606 677.27 703.341 676.396 702.398C675.522 701.455 674.324 700.91 673.065 700.883C673.013 700.883 672.961 700.883 672.909 700.883H424.436Z" fill="white"/>
<path d="M424.436 747.325C423.187 747.347 421.997 747.878 421.122 748.804C420.246 749.73 419.756 750.977 419.756 752.276C419.756 753.574 420.246 754.821 421.122 755.747C421.997 756.673 423.187 757.204 424.436 757.226H672.909C673.536 757.24 674.158 757.124 674.742 756.886C675.326 756.649 675.858 756.293 676.309 755.841C676.761 755.389 677.122 754.848 677.371 754.25C677.621 753.652 677.755 753.009 677.765 752.357C677.776 751.705 677.662 751.058 677.431 750.452C677.2 749.846 676.857 749.293 676.42 748.826C675.983 748.358 675.462 747.985 674.887 747.727C674.311 747.47 673.692 747.333 673.065 747.325C673.013 747.324 672.961 747.324 672.909 747.325H424.436Z" fill="white"/>
<path d="M424.436 793.765C423.187 793.787 421.997 794.319 421.122 795.245C420.247 796.171 419.756 797.417 419.756 798.716C419.756 800.015 420.247 801.261 421.122 802.187C421.997 803.113 423.187 803.645 424.436 803.667H672.909C673.536 803.68 674.159 803.565 674.742 803.327C675.326 803.09 675.859 802.734 676.31 802.282C676.762 801.829 677.123 801.289 677.373 800.691C677.623 800.093 677.757 799.45 677.767 798.798C677.777 798.146 677.664 797.498 677.433 796.892C677.202 796.286 676.858 795.733 676.421 795.266C675.984 794.798 675.463 794.425 674.887 794.167C674.311 793.91 673.692 793.773 673.065 793.765C673.013 793.764 672.961 793.764 672.909 793.765H424.436Z" fill="white"/>
<path d="M424.436 840.206C423.187 840.228 421.997 840.759 421.122 841.685C420.247 842.611 419.756 843.858 419.756 845.156C419.756 846.455 420.247 847.702 421.122 848.628C421.997 849.554 423.187 850.085 424.436 850.107H672.909C673.536 850.121 674.159 850.005 674.742 849.768C675.326 849.53 675.859 849.175 676.31 848.722C676.762 848.27 677.123 847.729 677.373 847.131C677.623 846.533 677.757 845.89 677.767 845.238C677.777 844.586 677.664 843.939 677.433 843.333C677.202 842.726 676.858 842.174 676.421 841.706C675.984 841.238 675.463 840.865 674.887 840.608C674.311 840.35 673.692 840.214 673.065 840.206C673.013 840.205 672.961 840.205 672.909 840.206H424.436Z" fill="white"/>
<path d="M424.436 886.647C423.187 886.669 421.997 887.2 421.122 888.127C420.247 889.053 419.756 890.299 419.756 891.598C419.756 892.897 420.247 894.143 421.122 895.069C421.997 895.995 423.187 896.527 424.436 896.549H672.909C673.536 896.562 674.159 896.447 674.742 896.209C675.326 895.971 675.859 895.616 676.31 895.164C676.762 894.711 677.123 894.171 677.373 893.573C677.623 892.975 677.757 892.332 677.767 891.68C677.777 891.028 677.664 890.38 677.433 889.774C677.202 889.168 676.858 888.615 676.421 888.147C675.984 887.68 675.463 887.307 674.887 887.049C674.311 886.792 673.692 886.655 673.065 886.647C673.013 886.646 672.961 886.646 672.909 886.647H424.436Z" fill="white"/>
<path d="M737.003 617.26H688.831C687.486 617.26 686.196 616.704 685.245 615.715C684.294 614.726 683.76 613.385 683.76 611.986V567.152L737.003 617.26Z" fill="#F9F126"/>
<path opacity="0.2" d="M737.003 617.26H688.831C687.486 617.26 686.196 616.704 685.245 615.715C684.294 614.726 683.76 613.385 683.76 611.986V567.152L737.003 617.26Z" fill="black"/>
<path d="M1000 695.825H842V510.899H1000V695.825Z" fill="#F9E426"/>
<path d="M918.656 562.845C911.011 562.844 903.538 565.2 897.181 569.613C890.824 574.027 885.869 580.3 882.943 587.64C880.017 594.98 879.251 603.056 880.742 610.849C882.233 618.641 885.915 625.798 891.32 631.417C896.726 637.035 903.613 640.861 911.111 642.411C918.609 643.961 926.381 643.166 933.445 640.126C940.508 637.086 946.545 631.938 950.793 625.333C955.041 618.727 957.308 610.961 957.309 603.016V603.014C957.309 597.739 956.309 592.515 954.366 587.642C952.424 582.768 949.576 578.34 945.987 574.61C942.398 570.88 938.136 567.921 933.447 565.902C928.757 563.884 923.73 562.845 918.654 562.845H918.656ZM918.656 574.894C920.95 574.894 923.191 575.601 925.098 576.925C927.005 578.249 928.491 580.131 929.369 582.333C930.246 584.535 930.476 586.957 930.029 589.295C929.581 591.632 928.477 593.779 926.855 595.465C925.234 597.15 923.168 598.297 920.918 598.762C918.669 599.227 916.338 598.989 914.219 598.077C912.1 597.165 910.289 595.62 909.015 593.639C907.741 591.657 907.061 589.327 907.061 586.944C907.061 583.748 908.283 580.684 910.457 578.424C912.632 576.164 915.581 574.894 918.656 574.894ZM918.656 632.907C914.075 632.885 909.569 631.702 905.527 629.461C901.485 627.22 898.031 623.988 895.464 620.045C895.65 612.011 910.925 607.589 918.656 607.589C926.387 607.589 941.663 612.011 941.849 620.045C939.279 623.985 935.824 627.215 931.783 629.456C927.742 631.697 923.236 632.881 918.656 632.907Z" fill="black"/>
</g>
<defs>
<clipPath id="clip0_15_1248">
<rect width="1279" height="801" fill="white" transform="translate(110 300)"/>
</clipPath>
<clipPath id="clip1_15_1248">
<rect width="1279" height="801" fill="white" transform="translate(110 300)"/>
</clipPath>
</defs>
</svg>
