<svg width="1500" height="1500" viewBox="0 0 1500 1500" fill="none" xmlns="http://www.w3.org/2000/svg">
<g clip-path="url(#clip0_9_686)">
<path d="M1248.03 1182.12L1226.28 1182.12L1215.93 1098.22L1248.03 1098.22L1248.03 1182.12Z" fill="#FFB8B8"/>
<path d="M1253.58 1203.21L1183.45 1203.21V1202.32C1183.45 1195.08 1186.32 1188.14 1191.44 1183.02C1196.56 1177.9 1203.5 1175.02 1210.74 1175.02H1210.75L1253.58 1175.02L1253.58 1203.21Z" fill="#2F2E41"/>
<path d="M1344.02 1128.64L1329.9 1145.19L1259.37 1098.6L1280.21 1074.18L1344.02 1128.64Z" fill="#FFB8B8"/>
<path d="M1363.66 1138.11L1318.14 1191.47L1317.46 1190.89C1311.95 1186.19 1308.54 1179.49 1307.97 1172.28C1307.4 1165.06 1309.72 1157.91 1314.41 1152.4L1314.42 1152.4L1342.22 1119.81L1363.66 1138.11Z" fill="#2F2E41"/>
<path d="M1093.6 769.493L1086.83 831.942L1360.51 828.038L1241.16 633.529L1143.71 630.028L1093.6 769.493Z" fill="#2F2E41"/>
<path opacity="0.28" d="M1093.6 769.493L1086.83 831.942L1360.51 828.038L1241.16 633.529L1143.71 630.028L1093.6 769.493Z" fill="black"/>
<path d="M1147.42 780.214L1137.76 837.354V888.429L1215.66 913.861C1215.66 913.861 1206.54 1112.24 1218.69 1124.88L1218.4 1155.38L1252.38 1156.93L1252.66 1135.46L1267.06 975.005L1275.55 857.199L1261.79 767.881L1147.42 780.214Z" fill="#2F2E41"/>
<path d="M1207.77 829.401L1137.76 888.429C1137.76 888.429 1133.66 994.928 1144.07 1007.42C1153 1018.14 1269.24 1110.67 1269.24 1110.67C1269.24 1110.67 1289.9 1129.63 1301.48 1129.93C1313.06 1130.23 1326.52 1105.94 1326.52 1105.94L1299.71 1085.57C1299.71 1085.57 1230.25 1020.71 1209.62 994.928C1201.3 984.52 1201.3 983.479 1201.3 983.479L1204.14 940.197L1232.76 859.871L1207.77 829.401Z" fill="#2F2E41"/>
<path d="M1133.44 546.656L1103.25 543.866L1075.87 548.43L1017.89 548.448L1012.95 590.478L1065.86 602.32L1078.76 596L1132.5 616.482L1133.44 546.656Z" fill="#2F2E41"/>
<path d="M1169.49 546.524C1169.49 546.524 1233.56 540.52 1248.12 551.969C1262.69 563.418 1293.91 790.309 1293.91 790.309L1169.49 797.333L1147.19 781.983L1153.52 668.71L1169.49 546.524Z" fill="#CCCCCC"/>
<path d="M1189.05 545.111L1118.38 546.662L1052.49 844.43L1104.52 855.88L1189.05 545.111Z" fill="#2F2E41"/>
<path d="M1239.28 542.594L1294.95 560.02L1291.79 682.363L1360.51 828.634L1279.72 837.145L1215.87 679.201L1239.28 542.594Z" fill="#2F2E41"/>
<path d="M1331.08 843.492C1333.03 841.773 1334.58 839.648 1335.62 837.265C1336.66 834.882 1337.17 832.3 1337.1 829.7C1337.04 827.101 1336.41 824.547 1335.25 822.218C1334.09 819.89 1332.44 817.844 1330.4 816.224L1341.6 777.149L1319.52 764.551L1304.48 819.954C1301.99 823.552 1300.9 827.941 1301.42 832.287C1301.95 836.634 1304.05 840.637 1307.33 843.538C1310.6 846.44 1314.83 848.037 1319.21 848.029C1323.59 848.02 1327.81 846.406 1331.08 843.492Z" fill="#FFB8B8"/>
<path d="M1262.69 563.418L1295.63 560.56C1295.63 560.56 1325.2 591.494 1331.93 615.444C1338.66 639.395 1345.94 714.332 1345.94 714.332L1342.9 823.957L1304.4 797.806L1301.82 703.514L1262.69 563.418Z" fill="#2F2E41"/>
<path d="M1254.75 508.317C1267.12 485.686 1258.8 457.312 1236.17 444.94C1213.55 432.569 1185.18 440.886 1172.81 463.517C1160.44 486.148 1168.76 514.523 1191.38 526.894C1214.01 539.266 1242.38 530.948 1254.75 508.317Z" fill="#FFB8B8"/>
<path d="M1208.57 466.421C1202.45 465.005 1196.09 466.574 1189.88 467.591C1183.68 468.608 1176.84 468.944 1171.59 465.481C1167.71 462.924 1165.33 458.693 1163.09 454.624C1162.16 453.171 1161.54 451.54 1161.27 449.834C1161 446.824 1162.92 444.078 1164.95 441.844C1174.39 431.464 1188.19 425.783 1202.1 423.978C1213.58 422.268 1225.3 423.699 1236.02 428.121C1246.59 432.755 1255.67 441.239 1259.82 452.001C1261.73 457.509 1262.92 463.241 1263.37 469.054C1264 473.331 1264.08 477.671 1263.61 481.969C1263.05 485.155 1262.21 488.286 1261.11 491.325L1254.23 512.099C1253.74 514.062 1252.81 515.891 1251.53 517.454C1250.86 518.22 1249.97 518.75 1248.99 518.967C1248 519.183 1246.97 519.074 1246.05 518.655C1246.6 516.398 1246.68 514.053 1246.29 511.763C1246.08 510.622 1245.52 509.571 1244.71 508.747C1243.89 507.922 1242.84 507.361 1241.7 507.136C1239.17 506.867 1237 508.833 1234.6 509.68C1233.5 510.006 1232.34 510.112 1231.2 509.992C1230.06 509.873 1228.95 509.529 1227.94 508.981C1226.93 508.434 1226.04 507.693 1225.32 506.8C1224.6 505.908 1224.06 504.882 1223.73 503.781C1223.67 503.559 1223.61 503.335 1223.56 503.108C1223.18 500.733 1223.82 498.191 1222.92 495.961C1221.86 493.347 1219.07 491.978 1216.97 490.1C1215.05 488.331 1213.68 486.051 1213.01 483.529C1212.35 481.006 1212.41 478.346 1213.21 475.861C1213.77 474.132 1215.36 473.346 1215.04 471.36C1214.62 468.754 1210.78 466.932 1208.57 466.421Z" fill="#2F2E41"/>
<path d="M689.474 663.828H100V295H689.474V663.828Z" fill="white"/>
<path d="M689.474 663.828H100V295H689.474V663.828ZM102.692 661.136H686.782V297.692H102.692V661.136Z" fill="#3F3D56"/>
<path d="M617.472 1174.67H281.014V805.841H617.472V1174.67Z" fill="white"/>
<path d="M617.472 1174.67H281.014V805.841H617.472V1174.67ZM283.706 1171.98H614.78V808.533H283.706V1171.98Z" fill="#3F3D56"/>
<path d="M571.714 1139.83H501.73V1142.67H571.714V1139.83Z" fill="#3F3D56"/>
<path d="M571.714 1148.35H501.73V1151.19H571.714V1148.35Z" fill="#3F3D56"/>
<path d="M571.714 1156.86H501.73V1159.7H571.714V1156.86Z" fill="#3F3D56"/>
<path d="M449.243 871.799V901.413C466.811 901.413 483.984 906.624 498.591 916.386C513.199 926.148 524.583 940.023 531.306 956.257C538.029 972.491 539.788 990.354 536.361 1007.59C532.934 1024.82 524.474 1040.65 512.052 1053.08L532.988 1074.02C549.551 1057.45 560.831 1036.34 565.4 1013.36C569.97 990.386 567.625 966.569 558.661 944.924C549.697 923.279 534.517 904.779 515.041 891.763C495.565 878.747 472.667 871.799 449.243 871.799Z" fill="#E6E6E6"/>
<path d="M532.988 1074.02L512.052 1053.08C496.866 1068.27 476.689 1077.44 455.26 1078.89C433.83 1080.35 412.6 1073.98 395.503 1060.98L377.582 1084.56C400.382 1101.9 428.69 1110.38 457.263 1108.44C485.835 1106.5 512.738 1094.27 532.988 1074.02Z" fill="#575A89"/>
<path d="M360.418 990.255C360.418 978.588 362.716 967.036 367.18 956.257C371.643 945.478 378.186 935.684 386.434 927.434C394.683 919.185 404.475 912.641 415.251 908.176C426.028 903.711 437.578 901.413 449.243 901.413V871.799C424.45 871.799 400.283 879.581 380.147 894.048C360.011 908.515 344.922 928.938 337.007 952.438C329.092 975.938 328.75 1001.33 336.03 1025.03C343.309 1048.74 357.843 1069.56 377.582 1084.56L395.503 1060.98C384.591 1052.7 375.745 1042.01 369.658 1029.74C363.571 1017.47 360.408 1003.95 360.418 990.255Z" fill="#F9E426"/>
<path d="M1115.43 945.835H778.971V577.006H1115.43V945.835Z" fill="white"/>
<path d="M1115.43 945.835H778.971V577.006H1115.43V945.835ZM781.663 943.143H1112.74V579.698H781.663V943.143Z" fill="#3F3D56"/>
<path d="M887.984 802.476H827.421V899.394H887.984V802.476Z" fill="#575A89"/>
<path d="M975.463 736.517H914.9V899.394H975.463V736.517Z" fill="#E6E6E6"/>
<path d="M1062.94 659.79H1002.38V899.394H1062.94V659.79Z" fill="#F9E426"/>
<path d="M1083.13 902.087H811.272V620.754H813.963V899.394H1083.13V902.087Z" fill="#3F3D56"/>
<path d="M1017.59 586.825C1027.82 586.825 1036.12 578.525 1036.12 568.285C1036.12 558.046 1027.82 549.745 1017.59 549.745C1007.35 549.745 999.049 558.046 999.049 568.285C999.049 578.525 1007.35 586.825 1017.59 586.825Z" fill="#FFB8B8"/>
<path d="M1398.46 1205H1109.6C1109.19 1205 1108.79 1204.84 1108.51 1204.55C1108.22 1204.26 1108.05 1203.86 1108.05 1203.46C1108.05 1203.05 1108.22 1202.65 1108.51 1202.36C1108.79 1202.07 1109.19 1201.91 1109.6 1201.91H1398.46C1398.87 1201.91 1399.26 1202.07 1399.55 1202.36C1399.84 1202.65 1400 1203.05 1400 1203.46C1400 1203.86 1399.84 1204.26 1399.55 1204.55C1399.26 1204.84 1398.87 1205 1398.46 1205Z" fill="#CCCCCC"/>
<path d="M607.61 586.692H181.864C181.511 586.692 181.172 586.552 180.922 586.302C180.672 586.052 180.532 585.713 180.531 585.36V381.26C180.531 380.907 180.672 380.568 180.922 380.318C181.172 380.068 181.51 379.928 181.864 379.928C182.217 379.928 182.556 380.068 182.806 380.318C183.056 380.568 183.196 380.907 183.196 381.26V584.027H607.61C607.785 584.026 607.959 584.06 608.121 584.127C608.283 584.194 608.431 584.292 608.555 584.416C608.679 584.54 608.778 584.687 608.845 584.849C608.912 585.011 608.947 585.184 608.947 585.36C608.947 585.535 608.912 585.709 608.845 585.871C608.778 586.033 608.679 586.18 608.555 586.304C608.431 586.427 608.283 586.525 608.121 586.592C607.959 586.659 607.785 586.693 607.61 586.692Z" fill="#3F3D56"/>
<path d="M272.827 572.033H234.104C233.055 572.032 232.05 571.615 231.309 570.873C230.567 570.132 230.15 569.126 230.149 568.078V514.687C230.15 513.638 230.567 512.633 231.309 511.891C232.05 511.15 233.055 510.733 234.104 510.731H272.827C273.876 510.733 274.881 511.15 275.623 511.891C276.364 512.633 276.781 513.638 276.782 514.687V568.078C276.781 569.126 276.364 570.132 275.623 570.873C274.881 571.615 273.876 572.032 272.827 572.033Z" fill="#F9E426"/>
<path d="M343.444 572.033H304.721C303.672 572.032 302.667 571.615 301.925 570.873C301.184 570.132 300.767 569.126 300.766 568.078V464.046C300.767 462.998 301.184 461.992 301.925 461.251C302.667 460.509 303.672 460.092 304.721 460.091H343.444C344.493 460.092 345.498 460.509 346.239 461.251C346.981 461.992 347.398 462.998 347.399 464.046V568.078C347.398 569.126 346.981 570.132 346.239 570.873C345.498 571.615 344.493 572.032 343.444 572.033Z" fill="#F9E426"/>
<path d="M414.061 572.033H375.337C374.289 572.032 373.284 571.615 372.542 570.873C371.801 570.132 371.383 569.126 371.382 568.078V514.687C371.383 513.638 371.801 512.633 372.542 511.891C373.284 511.15 374.289 510.733 375.337 510.731H414.061C415.109 510.733 416.115 511.15 416.856 511.891C417.598 512.633 418.015 513.638 418.016 514.687V568.078C418.015 569.126 417.598 570.132 416.856 570.873C416.115 571.615 415.109 572.032 414.061 572.033Z" fill="#F9E426"/>
<path d="M484.677 572.033H445.954C444.929 572.055 443.938 571.67 443.196 570.962C442.455 570.254 442.024 569.281 441.999 568.257V443.877C442.024 442.853 442.455 441.88 443.196 441.172C443.938 440.464 444.929 440.079 445.954 440.101H484.677C485.702 440.079 486.694 440.464 487.435 441.172C488.176 441.88 488.607 442.853 488.633 443.877V568.257C488.607 569.281 488.176 570.254 487.435 570.962C486.694 571.67 485.702 572.055 484.677 572.033Z" fill="#F9E426"/>
<path d="M555.294 572.033H516.571C515.522 572.032 514.517 571.615 513.775 570.873C513.034 570.132 512.617 569.126 512.616 568.077V408.075C512.617 407.027 513.034 406.021 513.775 405.279C514.517 404.538 515.522 404.121 516.571 404.12H555.294C556.343 404.121 557.348 404.538 558.089 405.279C558.831 406.021 559.248 407.027 559.249 408.075V568.077C559.248 569.126 558.831 570.132 558.089 570.873C557.348 571.615 556.343 572.032 555.294 572.033Z" fill="#F9E426"/>
<path d="M253.466 494.74C257.881 494.74 261.46 491.16 261.46 486.744C261.46 482.328 257.881 478.748 253.466 478.748C249.05 478.748 245.471 482.328 245.471 486.744C245.471 491.16 249.05 494.74 253.466 494.74Z" fill="#3F3D56"/>
<path d="M324.082 442.766C328.497 442.766 332.077 439.187 332.077 434.771C332.077 430.355 328.497 426.775 324.082 426.775C319.667 426.775 316.088 430.355 316.088 434.771C316.088 439.187 319.667 442.766 324.082 442.766Z" fill="#3F3D56"/>
<path d="M394.699 494.74C399.114 494.74 402.693 491.16 402.693 486.744C402.693 482.328 399.114 478.748 394.699 478.748C390.284 478.748 386.705 482.328 386.705 486.744C386.705 491.16 390.284 494.74 394.699 494.74Z" fill="#3F3D56"/>
<path d="M465.316 417.446C469.731 417.446 473.31 413.866 473.31 409.45C473.31 405.034 469.731 401.454 465.316 401.454C460.9 401.454 457.321 405.034 457.321 409.45C457.321 413.866 460.9 417.446 465.316 417.446Z" fill="#3F3D56"/>
<path d="M535.932 388.128C540.348 388.128 543.927 384.548 543.927 380.132C543.927 375.716 540.348 372.136 535.932 372.136C531.517 372.136 527.938 375.716 527.938 380.132C527.938 384.548 531.517 388.128 535.932 388.128Z" fill="#3F3D56"/>
<path d="M394.867 488.535L324.083 435.506L254.264 487.81L252.667 485.677L324.083 432.175L394.53 484.952L464.537 408.328L464.818 408.214L535.434 379.755L536.43 382.229L466.094 410.573L394.867 488.535Z" fill="#3F3D56"/>
<ellipse cx="1179.13" cy="490.686" rx="4.80148" ry="4.80211" fill="#2F2E41"/>
<ellipse cx="1206.74" cy="490.686" rx="4.80148" ry="4.80211" fill="#2F2E41"/>
</g>
<defs>
<clipPath id="clip0_9_686">
<rect width="1300" height="910" fill="white" transform="translate(100 295)"/>
</clipPath>
</defs>
</svg>
