<svg xmlns="http://www.w3.org/2000/svg" viewBox="0 0 24 24" fill="currentColor">
  <path d="M12 10.8c-1.087-2.114-4.046-6.053-6.798-7.995C2.566.944 1.561 1.266.902 1.565.139 1.908 0 3.08 0 3.768c0 .69.378 5.65.624 6.479.815 2.736 3.713 3.66 6.383 3.364.136-.02.275-.038.415-.055-.138.022-.276.04-.415.055-2.67-.296-5.568.628-6.383 3.364C.378 17.902 0 22.862 0 23.55c0 .688.139 1.86.902 2.203.659.299 1.664.621 3.3-.24 2.752-1.942 5.711-5.881 6.798-7.995 1.087 2.114 4.046 6.053 6.798 7.995 1.636.861 2.641.539 3.3.24.763-.343.902-1.515.902-2.203 0-.688-.378-5.648-.624-6.479-.815-2.736-3.713-3.66-6.383-3.364-.139.015-.277.033-.415.055.138-.017.276-.035.415-.055 2.67.296 5.568-.628 6.383-3.364.246-.829.624-5.789.624-6.479 0-.688-.139-1.86-.902-2.203-.659-.299-1.664-.622-3.3.24-2.752 1.942-5.711 5.881-6.798 7.995z"/>
</svg> 